<svg xmlns="http://www.w3.org/2000/svg" width="818" height="250" viewBox="0 0 818 250">
  <g fill="none" fill-rule="evenodd" transform="translate(19 50)">
    <g fill="#000" fill-rule="nonzero">
      <path d="M57.518832,34.8306711 C57.6185096,34.2317983 57.6778319,33.6228366 57.8247252,33.0356668 C58.9986613,28.3423438 60.3606531,23.687762 61.305371,18.949241 C61.8041627,16.4455974 61.87882,13.7700401 61.6294242,11.2228127 C61.1064193,5.87855853 57.887276,3.05893277 52.5204228,2.80388719 C48.3004677,2.60332128 44.376317,3.83012281 40.6143947,5.53311704 C28.5521914,10.9948052 19.0174415,19.4016241 11.8721297,30.5320231 C9.64128796,34.0066156 7.79059328,37.6636141 6.76798964,41.6898638 C4.98267056,48.720163 6.44635779,55.1289903 10.5004526,61.0426579 C13.780936,65.8271839 17.9984698,69.7150148 22.2668514,73.5794397 C27.7067476,78.5048057 33.1716642,83.4156438 38.3714463,88.5883879 C42.0026175,92.200592 44.8670376,96.4504101 46.4360522,101.438327 C48.9756121,109.512214 46.1216843,116.351633 38.4569996,119.95173 C35.976762,121.116385 33.2834484,121.934791 30.6046627,122.547788 C25.0114162,123.827858 19.3164744,124.221323 13.5944945,123.599447 C12.0613961,123.43278 10.5242622,123.066354 9.05613592,122.585318 C5.81318292,121.522763 3.98791209,118.862541 4.10776737,115.474308 C4.20502367,112.720058 5.22197757,110.24991 6.71875615,107.974677 C7.01940324,107.517451 7.45725839,107.115916 7.90964146,106.799934 C8.79907257,106.178865 9.48713066,106.429876 9.51739715,107.496063 C9.54887429,108.592517 9.34871194,109.720448 9.08680595,110.794706 C8.78050912,112.048546 8.17840785,113.234185 7.91811607,114.493674 C7.48712132,116.581658 8.25104741,117.881503 10.3495237,118.127267 C13.5133803,118.497325 16.7151709,118.68982 19.9008193,118.691434 C24.2357871,118.693855 28.5501737,118.215645 32.6926466,116.859706 C34.3181586,116.327823 35.9315641,115.591742 37.3577209,114.655096 C39.9751665,112.936363 41.0857447,110.40447 40.5401409,107.265231 C39.8892097,103.521872 38.1801622,100.244617 36.0074321,97.1751915 C32.1317078,91.7009932 27.216027,87.2122717 22.3588615,82.6589817 C17.16029,77.7852704 11.779716,73.0871048 7.4641188,67.3465615 C3.20703677,61.6839039 0.318403424,55.5264901 0.264730857,48.2798865 C0.21751514,41.873884 2.34706504,36.1071097 5.68687079,30.7991753 C13.8636644,17.8039572 25.1554847,8.46614123 39.4089815,2.76716385 C43.609566,1.0875757 47.9711683,-0.00887816898 52.5684457,0.365215588 C59.3949505,0.920908255 63.275921,4.93141932 63.5680935,11.7857693 C63.7613954,16.3172675 62.5180482,20.5933165 61.119333,24.8366777 C60.0511279,28.077613 59.0236816,31.332269 57.9704079,34.5784504 C57.9344917,34.6894275 57.8202862,34.7749808 57.7424004,34.8722371 L57.518832,34.8306711"/>
      <path d="M91.3494984,98.1913383 C91.3494984,98.1913383 91.2094655,95.9806742 85.4305846,98.2062698 C79.6521072,100.432269 73.2109956,106.636495 66.5943384,96.6989988 C62.8651039,91.0976813 62.0483124,88.0109033 62.0454875,86.38297 C72.2134123,77.1730803 84.6836077,65.3691511 86.4192898,63.6245909 C89.2373013,60.792455 91.5900161,57.3025275 89.3172048,55.0418228 C87.0447971,52.780311 77.5217502,55.9792768 69.0656978,63.2650251 C60.6096454,70.5503698 55.9756448,78.9898765 55.4885561,85.8559296 L49.8658503,90.8559529 C49.8658503,90.8559529 59.5374047,35.9824118 56.6967942,39.3855754 C56.6967942,39.3855754 45.5308825,92.1783966 45.5345145,93.5908325 C45.5381465,95.0032685 45.245974,99.2413835 48.8739167,97.517001 C49.9171016,97.0210342 53.2351154,94.2389389 57.4974436,90.4620851 C58.172588,92.4717797 64.0753598,108.636908 78.4555722,105.950454 C93.7833274,103.086841 91.3494984,98.1913383 91.3494984,98.1913383 Z M77.6779253,64.4853697 C77.7715496,66.1794858 60.5628333,81.6940861 60.5628333,81.6940861 C60.4094831,76.2235198 77.5229609,61.6818861 77.6779253,64.4853697 Z"/>
      <path d="M109.432714,70.9422199 C109.432714,70.9422199 112.319734,65.6879581 107.479517,59.755727 C103.463356,54.8327823 96.7877805,65.5313795 95.1735679,68.2367997 C93.5593554,70.9422199 86.3494751,84.6125824 91.0306914,95.1497583 C95.7119078,105.686934 111.380665,94.0387765 114.409735,90.5928363 C121.884346,82.0907788 126.452164,78.7473411 126.919882,77.6351487 C127.387601,76.5225527 127.323436,67.2400234 119.11799,76.4959182 C110.91214,85.7514093 110.842729,87.1307539 104.858843,91.5896125 C99.115475,95.8696971 91.8107597,95.3014943 96.3842273,78.8502472 C100.958099,62.3985965 108.759991,59.8356305 108.27492,68.5217082 C108.039649,72.7335923 109.432714,70.9422199 109.432714,70.9422199"/>
      <path d="M126.175327,57.5591873 C115.202717,61.3017391 115.762849,70.190804 119.202736,73.9325486 C119.595867,74.3593329 119.992574,74.7828095 120.392814,75.2029339 C119.101444,76.6759029 118.197889,77.6787324 118.197889,77.6787324 C114.695854,84.8559249 120.159964,81.6940861 122.074824,81.6940861 C122.746336,81.6940861 123.722127,80.952759 124.856112,79.7469422 C129.536925,84.5149225 131.712076,87.5064619 129.439668,94.8349869 C127.09341,102.401608 133.450583,101.362459 134.988524,97.4580822 C136.462703,93.7155305 137.308954,91.4047852 135.79563,85.8559296 C134.69393,81.8163627 131.16284,78.4910849 128.004633,75.82602 C132.033708,70.2396339 136.386835,62.428863 136.679815,60.6568611 C137.14834,57.8291643 137.14834,53.8166355 126.175327,57.5591873 L126.175327,57.5591873 Z M129.033694,64.3784282 C128.207217,65.8990164 125.73505,68.9603705 123.36014,71.763047 C122.770146,71.11373 122.415019,70.536649 122.41744,70.0338218 C122.427933,68.2004799 123.840368,64.66939 128.128121,62.0967387 C129.002217,61.5721197 130.949764,60.8533915 129.033694,64.3784282 Z M159.519308,85.9523788 C159.519308,85.9523788 165.529022,78.0395089 168.757447,70.8611057 C171.985872,63.682299 174.245366,60.1148893 176.872093,60.2597649 C179.935869,60.4284501 175.61785,72.0560266 174.104526,76.2933345 C172.591201,80.5306424 158.277575,127.126502 154.811054,136.329531 C153.725899,139.210497 144.880418,141.769831 148.108843,132.084555 C151.337268,122.39928 166.672288,84.7413158 166.672288,83.9305776 C166.672288,83.1198393 164.693263,86.0968508 162.252574,89.1820145 C159.811884,92.2671783 157.103639,95.3709054 155.081031,94.7070605 C152.793288,93.9564517 159.519308,85.9523788 159.519308,85.9523788 L159.519308,85.9523788 Z M178.572262,69.0075862 C178.572262,69.0075862 179.317222,65.9135443 183.453641,63.431289 C187.357211,61.088663 189.708715,61.6152998 193.138916,65.0455015 C196.569118,68.4757031 196.102611,75.1085025 193.138916,78.9680847 C190.175222,82.8276669 197.981554,75.4628221 201.411756,67.4292899 C204.841957,59.3957576 208.625268,39.1688673 210.491701,36.2523888 C213.720126,31.2079746 215.990113,30.2273405 217.150328,34.0328466 C218.645089,38.9360172 212.12932,56.7896114 210.503001,60.0010873 C208.877085,63.2125632 208.796778,71.7908922 208.272159,76.950319 C207.719695,82.3861797 207.196286,93.6243275 207.868606,95.5137632 C208.535276,97.3858462 209.281042,100.961731 204.438404,99.5492946 C199.595767,98.1368586 203.429521,75.9414362 203.429521,74.3272236 C203.429521,72.7130111 202.218862,78.9079553 195.762012,84.2848972 C189.305162,89.6622428 186.335011,91.4261735 184.361636,92.2958305 C177.815197,95.1820426 173.212673,95.8701007 177.138035,91.0851711 C181.062992,86.3006451 191.322927,77.5556487 190.515821,72.3094579 C189.708715,67.0632672 187.10499,65.1879558 184.558166,66.8401023 C182.797867,67.9817541 182.242982,70.0499639 181.171952,70.905093 C178.827308,72.7759654 176.285327,74.3211703 178.572262,69.0075862 L178.572262,69.0075862 Z"/>
      <path d="M173.302666,47.0885976 C173.302666,47.0890012 189.979903,43.103914 196.909313,42.6365994 C203.838724,42.1692849 232.495436,37.9953348 233.200443,43.6600102 C233.905047,49.3246855 229.911889,47.3868234 227.915108,47.0885976 C225.918731,46.7907754 204.073592,46.7169252 196.909313,47.6479223 C189.745035,48.5793229 162.702132,50.8521342 173.302666,47.0885976 M155.715013,59.4231992 C155.715013,59.4231992 136.683447,92.550069 147.296894,95.1061746 C155.772317,97.1477499 159.462004,93.1642769 159.672658,91.0012321 C160.412371,83.4011159 157.217441,89.4544129 155.435351,90.2950141 C152.989819,91.4483689 148.238384,93.2207743 149.852596,87.3018605 C151.466809,81.3833502 164.887776,50.080137 155.715013,59.4231992"/>
      <path d="M131.559533,95.4951998 C131.559533,95.4951998 143.368708,91.1533716 144.771055,85.2086304 C146.172999,79.2638891 149.89053,89.8127681 147.314247,92.0666123 C144.73756,94.3204566 123.547389,107.215997 131.559533,95.4951998 M167.272371,40.670085 C167.272371,40.670085 158.031004,43.4142463 157.710987,46.4747933 C157.390969,49.5349367 160.180328,49.8517259 163.193256,48.3807748 C166.20578,46.9098236 168.64082,41.7528181 167.272371,40.670085"/>
    </g>
    <path fill="#272727" d="M361.408,93.804 C354.305964,93.804 348.45469,91.4590235 343.854,86.769 C339.25331,82.0789765 336.953,76.3840335 336.953,69.684 L336.953,69.55 C336.953,62.8499665 339.275643,57.1326903 343.921,52.398 C348.566357,47.6633097 354.439964,45.296 361.542,45.296 C368.644036,45.296 374.49531,47.6409766 379.096,52.331 C383.69669,57.0210235 385.997,62.7159665 385.997,69.416 L385.997,69.55 C385.997,76.2500335 383.674357,81.9673097 379.029,86.702 C374.383643,91.4366903 368.510036,93.804 361.408,93.804 Z M361.542,86.233 C366.14269,86.233 369.928152,84.6361826 372.8985,81.4425 C375.868848,78.2488174 377.354,74.3293566 377.354,69.684 L377.354,69.55 C377.354,64.9046434 375.846515,60.9628495 372.8315,57.7245 C369.816485,54.4861505 366.00869,52.867 361.408,52.867 C356.80731,52.867 353.021848,54.4638174 350.0515,57.6575 C347.081152,60.8511826 345.596,64.7706434 345.596,69.416 L345.596,69.55 C345.596,74.1953566 347.103485,78.1371505 350.1185,81.3755 C353.133515,84.6138495 356.94131,86.233 361.542,86.233 Z M396.047,103.72 L396.047,57.624 L404.154,57.624 L404.154,63.52 C407.280682,59.0979779 411.278309,56.887 416.147,56.887 C420.613689,56.887 424.477317,58.5508167 427.738,61.8785 C430.998683,65.2061833 432.629,69.6616387 432.629,75.245 L432.629,75.379 C432.629,80.9623613 430.998683,85.4178167 427.738,88.7455 C424.477317,92.0731833 420.613689,93.737 416.147,93.737 C411.278309,93.737 407.280682,91.6600208 404.154,87.506 L404.154,103.72 L396.047,103.72 Z M414.271,86.702 C417.129681,86.702 419.53049,85.6635104 421.4735,83.5865 C423.41651,81.5094896 424.388,78.7736836 424.388,75.379 L424.388,75.245 C424.388,71.8949832 423.405343,69.1703438 421.44,67.071 C419.474657,64.9716562 417.085014,63.922 414.271,63.922 C411.456986,63.922 409.033843,64.9828227 407.0015,67.1045 C404.969157,69.2261773 403.953,71.9396501 403.953,75.245 L403.953,75.379 C403.953,78.6843499 404.969157,81.3978227 407.0015,83.5195 C409.033843,85.6411773 411.456986,86.702 414.271,86.702 Z M458.156,93.804 C452.974641,93.804 448.653184,92.0955171 445.1915,88.6785 C441.729816,85.2614829 439.999,80.8506937 439.999,75.446 L439.999,75.312 C439.999,70.1753076 441.629317,65.8203512 444.89,62.247 C448.150683,58.6736488 452.282308,56.887 457.285,56.887 C462.645027,56.887 466.810152,58.7071485 469.7805,62.3475 C472.750848,65.9878515 474.236,70.5103063 474.236,75.915 C474.236,76.3616689 474.191334,77.1209946 474.102,78.193 L448.106,78.193 C448.552669,81.0070141 449.691658,83.2068254 451.523,84.7925 C453.354342,86.3781746 455.609987,87.171 458.29,87.171 C461.774017,87.171 464.967652,85.7640141 467.871,82.95 L472.628,87.171 C468.965315,91.5930221 464.141363,93.804 458.156,93.804 Z M448.039,72.833 L466.196,72.833 C465.927999,70.1083197 465.012341,67.8750087 463.449,66.133 C461.885659,64.3909913 459.80868,63.52 457.218,63.52 C454.761321,63.52 452.706675,64.3798247 451.054,66.0995 C449.401325,67.8191753 448.396335,70.0636528 448.039,72.833 Z M483.415,93 L483.415,57.624 L491.522,57.624 L491.522,63.118 C494.336014,58.9639792 498.020977,56.887 502.577,56.887 C506.507686,56.887 509.589655,58.1153211 511.823,60.572 C514.056344,63.0286789 515.173,66.3339792 515.173,70.488 L515.173,93 L507.066,93 L507.066,72.9 C507.066,70.1306528 506.407173,67.9978408 505.0895,66.5015 C503.771827,65.0051592 501.907012,64.257 499.495,64.257 C497.127655,64.257 495.207007,65.0386588 493.733,66.602 C492.258993,68.1653412 491.522,70.3093197 491.522,73.034 L491.522,93 L483.415,93 Z M564.418,93.67 C556.958629,93.67 550.437361,91.1686917 544.854,86.166 L549.812,80.27 C554.502023,84.334687 559.437641,86.367 564.619,86.367 C567.165013,86.367 569.186159,85.8310054 570.6825,84.759 C572.178841,83.6869946 572.927,82.2576756 572.927,80.471 L572.927,80.337 C572.927,78.5949913 572.21234,77.2103385 570.783,76.183 C569.353659,75.1556615 566.539688,74.1506716 562.341,73.168 C559.660987,72.4979967 557.427676,71.8280033 555.641,71.158 C553.854324,70.4879966 552.24634,69.6170054 550.817,68.545 C549.387659,67.4729946 548.34917,66.1665077 547.7015,64.6255 C547.05383,63.0844923 546.73,61.2643438 546.73,59.165 L546.73,59.031 C546.73,55.0109799 548.226318,51.7391793 551.219,49.2155 C554.211682,46.6918207 558.052977,45.43 562.743,45.43 C569.175032,45.43 574.847642,47.3953137 579.761,51.326 L575.339,57.557 C571.006312,54.3409839 566.763021,52.733 562.609,52.733 C560.286322,52.733 558.432674,53.2578281 557.048,54.3075 C555.663326,55.3571719 554.971,56.685992 554.971,58.294 L554.971,58.428 C554.971,60.2593425 555.719159,61.677495 557.2155,62.6825 C558.711841,63.687505 561.670978,64.7259946 566.093,65.798 C571.274359,67.0486729 575.082154,68.7124896 577.5165,70.7895 C579.950845,72.8665104 581.168,75.7809812 581.168,79.533 L581.168,79.667 C581.168,83.9996883 579.627015,87.4166542 576.545,89.918 C573.462985,92.4193458 569.420692,93.67 564.418,93.67 Z M607.767,93.804 C602.406973,93.804 597.940351,92.0285178 594.367,88.4775 C590.793649,84.9264822 589.007,80.6050255 589.007,75.513 L589.007,75.379 C589.007,70.2423077 590.815982,65.8761846 594.434,62.2805 C598.052018,58.6848154 602.540973,56.887 607.901,56.887 C613.261027,56.887 617.738815,58.6736488 621.3345,62.247 C624.930185,65.8203512 626.728,70.1529745 626.728,75.245 L626.728,75.379 C626.728,80.4710255 624.919018,84.8148154 621.301,88.4105 C617.682982,92.0061846 613.171694,93.804 607.767,93.804 Z M607.901,86.769 C611.117016,86.769 613.707657,85.6746776 615.673,83.486 C617.638343,81.2973224 618.621,78.6396823 618.621,75.513 L618.621,75.379 C618.621,72.2076508 617.593677,69.5165111 615.539,67.3055 C613.484323,65.0944889 610.893682,63.989 607.767,63.989 C604.595651,63.989 602.027343,65.0721558 600.062,67.2385 C598.096657,69.4048442 597.114,72.0736508 597.114,75.245 L597.114,75.379 C597.114,78.5056823 598.141323,81.1856555 600.196,83.419 C602.250677,85.6523445 604.818985,86.769 607.901,86.769 Z M648.168,93.737 C644.237314,93.737 641.155344,92.508679 638.922,90.052 C636.688655,87.595321 635.572,84.2900208 635.572,80.136 L635.572,57.624 L643.679,57.624 L643.679,77.724 C643.679,80.4933472 644.337827,82.6261592 645.6555,84.1225 C646.973173,85.6188408 648.837988,86.367 651.25,86.367 C653.617345,86.367 655.537993,85.5853412 657.012,84.022 C658.486007,82.4586589 659.223,80.3146803 659.223,77.59 L659.223,57.624 L667.33,57.624 L667.33,93 L659.223,93 L659.223,87.506 C656.408986,91.6600208 652.724023,93.737 648.168,93.737 Z M678.519,93 L678.519,57.624 L686.626,57.624 L686.626,65.597 C689.127346,59.5669698 693.303637,56.6859987 699.155,56.954 L699.155,65.53 L698.686,65.53 C695.023315,65.53 692.097678,66.7248214 689.909,69.1145 C687.720322,71.5041786 686.626,74.9769772 686.626,79.533 L686.626,93 L678.519,93 Z M722.337,93.804 C717.110974,93.804 712.756017,92.0285178 709.272,88.4775 C705.787983,84.9264822 704.046,80.6050255 704.046,75.513 L704.046,75.379 C704.046,70.2869745 705.799149,65.9320181 709.3055,62.314 C712.811851,58.6959819 717.177974,56.887 722.404,56.887 C728.121362,56.887 732.833648,58.919313 736.541,62.984 L731.516,68.411 C728.701986,65.4629853 725.64235,63.989 722.337,63.989 C719.433652,63.989 717.01051,65.0833224 715.0675,67.272 C713.12449,69.4606776 712.153,72.1183177 712.153,75.245 L712.153,75.379 C712.153,78.5950161 713.146823,81.2973224 715.1345,83.486 C717.122177,85.6746776 719.656985,86.769 722.739,86.769 C725.999683,86.769 729.059319,85.2950147 731.918,82.347 L736.809,87.171 C734.888324,89.3150107 732.800178,90.9564943 730.5445,92.0955 C728.288822,93.2345057 725.553016,93.804 722.337,93.804 Z M760.46,93.804 C755.278641,93.804 750.957184,92.0955171 747.4955,88.6785 C744.033816,85.2614829 742.303,80.8506937 742.303,75.446 L742.303,75.312 C742.303,70.1753076 743.933317,65.8203512 747.194,62.247 C750.454683,58.6736488 754.586308,56.887 759.589,56.887 C764.949027,56.887 769.114152,58.7071485 772.0845,62.3475 C775.054848,65.9878515 776.54,70.5103063 776.54,75.915 C776.54,76.3616689 776.495334,77.1209946 776.406,78.193 L750.41,78.193 C750.856669,81.0070141 751.995657,83.2068254 753.827,84.7925 C755.658342,86.3781746 757.913987,87.171 760.594,87.171 C764.078017,87.171 767.271652,85.7640141 770.175,82.95 L774.932,87.171 C771.269315,91.5930221 766.445363,93.804 760.46,93.804 Z M750.343,72.833 L768.5,72.833 C768.231999,70.1083197 767.316341,67.8750087 765.753,66.133 C764.189659,64.3909913 762.11268,63.52 759.522,63.52 C757.065321,63.52 755.010675,64.3798247 753.358,66.0995 C751.705325,67.8191753 750.700335,70.0636528 750.343,72.833 Z"/>
    <path stroke="#434343" stroke-linecap="round" stroke-width="6" d="M303,3 L256,144"/>
  </g>
</svg>
