<?xml version="1.0" encoding="UTF-8"?>
<svg width="292px" height="104px" viewBox="0 0 292 104" version="1.1" xmlns="http://www.w3.org/2000/svg" xmlns:xlink="http://www.w3.org/1999/xlink">
    <!-- Generator: Sketch 45.1 (43504) - http://www.bohemiancoding.com/sketch -->
    <title>open_white</title>
    <desc>Created with Sketch.</desc>
    <defs></defs>
    <g id="Page-1" stroke="none" stroke-width="1" fill="none" fill-rule="evenodd">
        <path d="M0,104 L6.76,104 L61.464,0 L54.808,0 L0,104 Z M90.792,79.04 C83.4426661,79.04 77.4453339,76.44 72.8,71.24 C68.1546661,66.04 65.832,59.6266661 65.832,52 C65.832,44.3733339 68.1546661,37.96 72.8,32.76 C77.4453339,27.56 83.4426661,24.96 90.792,24.96 C98.1413339,24.96 104.156,27.56 108.836,32.76 C113.516,37.96 115.856,44.3733339 115.856,52 C115.856,59.6266661 113.516,66.04 108.836,71.24 C104.156,76.44 98.1413339,79.04 90.792,79.04 Z M90.792,72.904 C96.2693339,72.904 100.689334,70.8933339 104.052,66.872 C107.414666,62.8506661 109.096,57.8933339 109.096,52 C109.096,46.0373339 107.414666,41.0626661 104.052,37.076 C100.689334,33.0893339 96.2693339,31.096 90.792,31.096 C85.3146661,31.096 80.8946661,33.0893339 77.532,37.076 C74.1693339,41.0626661 72.488,46.0373339 72.488,52 C72.488,57.8933339 74.1693339,62.8506661 77.532,66.872 C80.8946661,70.8933339 85.3146661,72.904 90.792,72.904 Z M154.024,24.96 C161.165334,24.96 166.954666,27.5426661 171.392,32.708 C175.829334,37.8733339 178.048,44.304 178.048,52 C178.048,59.6266661 175.829334,66.04 171.392,71.24 C166.954666,76.44 161.165334,79.04 154.024,79.04 C145.981334,79.04 139.741334,75.6773339 135.304,68.952 L135.304,104 L128.544,104 L128.544,26 L135.304,26 L135.304,35.048 C139.741334,28.3226661 145.981334,24.96 154.024,24.96 Z M153.088,72.904 C158.565334,72.904 162.985334,70.8933339 166.348,66.872 C169.710666,62.8506661 171.392,57.8933339 171.392,52 C171.392,46.0373339 169.710666,41.0626661 166.348,37.076 C162.985334,33.0893339 158.565334,31.096 153.088,31.096 C148.581334,31.096 144.716,32.5866661 141.492,35.568 C138.268,38.5493339 136.205334,42.3973339 135.304,47.112 L135.304,56.888 C136.205334,61.6026661 138.268,65.4506661 141.492,68.432 C144.716,71.4133339 148.581334,72.904 153.088,72.904 Z M235.248,51.584 C235.248,52.7626661 235.213334,53.664 235.144,54.288 L193.44,54.288 C193.856,59.904 195.676,64.428 198.9,67.86 C202.124,71.292 206.370666,73.008 211.64,73.008 C218.088,73.008 223.218666,70.0613339 227.032,64.168 L231.816,67.6 C227.378666,75.2266661 220.584,79.04 211.432,79.04 C204.013334,79.04 198.050666,76.4746661 193.544,71.344 C189.037334,66.2133339 186.784,59.7653339 186.784,52 C186.784,44.2346661 189.037334,37.7866661 193.544,32.656 C198.050666,27.5253339 204.013334,24.96 211.432,24.96 C218.642666,24.96 224.414666,27.4386661 228.748,32.396 C233.081334,37.3533339 235.248,43.7493339 235.248,51.584 Z M211.536,30.888 C206.474666,30.888 202.349334,32.5346661 199.16,35.828 C195.970666,39.1213339 194.098666,43.472 193.544,48.88 L229.008,48.88 C228.522666,43.472 226.737334,39.1213339 223.652,35.828 C220.566666,32.5346661 216.528,30.888 211.536,30.888 Z M271.752,24.96 C264.333334,24.96 258.578666,27.9066661 254.488,33.8 L254.176,26 L247.832,26 L247.832,78 L254.696,78 L254.696,46.072 C254.696,41.912 256.186666,38.376 259.168,35.464 C262.149334,32.552 265.789334,31.096 270.088,31.096 C274.317334,31.096 277.870666,32.5173339 280.748,35.36 C283.625334,38.2026661 285.064,41.6693339 285.064,45.76 L285.064,78 L291.928,78 L291.928,45.136 C291.928,39.3813339 290.004,34.58 286.156,30.732 C282.308,26.884 277.506666,24.96 271.752,24.96 Z" id="open_white" fill="#FFFFFF"></path>
    </g>
</svg>