<?xml version="1.0" encoding="UTF-8"?>
<svg width="294px" height="100px" viewBox="0 0 294 100" version="1.1" xmlns="http://www.w3.org/2000/svg" xmlns:xlink="http://www.w3.org/1999/xlink">
    <!-- Generator: Sketch 45.1 (43504) - http://www.bohemiancoding.com/sketch -->
    <title>open_white</title>
    <desc>Created with Sketch.</desc>
    <defs></defs>
    <g id="Page-1" stroke="none" stroke-width="1" fill="none" fill-rule="evenodd">
        <path d="M0.128,96.312 L49.112,0.008 L52.544,0.008 L3.56,96.312 L0.128,96.312 Z M76.984,84.248 C69.1492942,84.248 62.6666923,81.5786934 57.536,76.24 C52.4053077,70.9013066 49.84,64.4880374 49.84,57 L49.84,56.792 C49.84,49.3039626 52.4053077,42.856027 57.536,37.448 C62.6666923,32.039973 69.1839605,29.336 77.088,29.336 C84.9227058,29.336 91.3879745,32.0053066 96.484,37.344 C101.580025,42.6826934 104.128,49.0959626 104.128,56.584 L104.128,56.792 C104.128,64.3493711 101.580025,70.8146398 96.484,76.188 C91.3879745,81.5613602 84.8880395,84.248 76.984,84.248 Z M77.088,81.128 C83.8827006,81.128 89.4986445,78.7706902 93.936,74.056 C98.3733555,69.3413098 100.592,63.621367 100.592,56.896 L100.592,56.688 C100.592,50.0319667 98.321356,44.3293571 93.78,39.58 C89.238644,34.8306429 83.605367,32.456 76.88,32.456 C70.0852994,32.456 64.4866887,34.8133098 60.084,39.528 C55.6813113,44.2426902 53.48,49.962633 53.48,56.688 L53.48,56.896 C53.48,63.621367 55.7333108,69.3413098 60.24,74.056 C64.7466892,78.7706902 70.362633,81.128 77.088,81.128 Z M119.728,99.64 L119.728,30.584 L123.056,30.584 L123.056,45.04 C124.997343,40.3946434 127.978647,36.6160146 132,33.704 C136.021353,30.7919854 140.770639,29.336 146.248,29.336 C153.458703,29.336 159.577308,31.9186408 164.604,37.084 C169.630692,42.2493592 172.144,48.7839605 172.144,56.688 L172.144,56.896 C172.144,64.7307058 169.630692,71.247974 164.604,76.448 C159.577308,81.648026 153.458703,84.248 146.248,84.248 C140.701306,84.248 135.917353,82.8093477 131.896,79.932 C127.874647,77.0546523 124.928009,73.3280229 123.056,68.752 L123.056,99.64 L119.728,99.64 Z M145.936,81.024 C152.5227,81.024 157.947979,78.7706892 162.212,74.264 C166.476021,69.7573108 168.608,64.0027017 168.608,57 L168.608,56.792 C168.608,49.858632 166.458688,44.0866897 162.16,39.476 C157.861312,34.8653103 152.453366,32.56 145.936,32.56 C139.487968,32.56 134.028022,34.8999766 129.556,39.58 C125.083978,44.2600234 122.848,49.962633 122.848,56.688 L122.848,56.896 C122.848,63.621367 125.101311,69.3239766 129.608,74.004 C134.114689,78.6840234 139.557301,81.024 145.936,81.024 Z M210.416,84.248 C203.135964,84.248 196.982692,81.7173586 191.956,76.656 C186.929308,71.5946414 184.416,64.9733742 184.416,56.792 L184.416,56.584 C184.416,48.8186278 186.790643,42.336026 191.54,37.136 C196.289357,31.935974 202.269297,29.336 209.48,29.336 C216.968037,29.336 222.843979,32.039973 227.108,37.448 C231.372021,42.856027 233.504,49.3386289 233.504,56.896 L233.504,58.04 L188.056,58.04 C188.333335,64.973368 190.638645,70.5546455 194.972,74.784 C199.305355,79.0133545 204.48797,81.128 210.52,81.128 C218.077371,81.128 224.351975,77.9040322 229.344,71.456 L231.84,73.432 C226.293306,80.6427027 219.152044,84.248 210.416,84.248 Z M188.056,55.024 L229.864,55.024 C229.586665,48.8533025 227.628018,43.5493555 223.988,39.112 C220.347982,34.6746445 215.442698,32.456 209.272,32.456 C203.378637,32.456 198.45602,34.5879787 194.504,38.852 C190.55198,43.1160213 188.402668,48.5066341 188.056,55.024 Z M248.688,83 L248.688,30.584 L252.016,30.584 L252.016,43.064 C253.402674,39.389315 255.829316,36.1826804 259.296,33.444 C262.762684,30.7053196 267.061308,29.336 272.192,29.336 C278.986701,29.336 284.290648,31.4333124 288.104,35.628 C291.917352,39.8226876 293.824,45.386632 293.824,52.32 L293.824,83 L290.496,83 L290.496,52.84 C290.496,46.5999688 288.866683,41.642685 285.608,37.968 C282.349317,34.293315 277.738696,32.456 271.776,32.456 C266.229306,32.456 261.549352,34.4666466 257.736,38.488 C253.922648,42.5093534 252.016,47.5013035 252.016,53.464 L252.016,83 L248.688,83 Z" id="open_white" fill="#FFFFFF"></path>
    </g>
</svg>