<?xml version="1.0" encoding="UTF-8"?>
<svg width="236px" height="76px" viewBox="0 0 236 76" version="1.1" xmlns="http://www.w3.org/2000/svg" xmlns:xlink="http://www.w3.org/1999/xlink">
    <!-- Generator: Sketch 45.1 (43504) - http://www.bohemiancoding.com/sketch -->
    <title>.open</title>
    <desc>Created with Sketch.</desc>
    <defs></defs>
    <g id="Page-1" stroke="none" stroke-width="1" fill="none" fill-rule="evenodd">
        <path d="M5.4,52 C6.73333282,52 7.88333282,51.5166672 8.85,50.55 C9.81666718,49.5833328 10.3,48.4333328 10.3,47.1 C10.3,45.7666672 9.81666718,44.6166672 8.85,43.65 C7.88333282,42.6833328 6.73333282,42.2 5.4,42.2 C4.06666718,42.2 2.91666718,42.6833328 1.95,43.65 C0.983332825,44.6166672 0.5,45.7666672 0.5,47.1 C0.5,48.4333328 0.983332825,49.5833328 1.95,50.55 C2.91666718,51.5166672 4.06666718,52 5.4,52 Z M42,52 C34.9333328,52 29.1666672,49.5 24.7,44.5 C20.2333328,39.5 18,33.3333328 18,26 C18,18.6666672 20.2333328,12.5 24.7,7.5 C29.1666672,2.5 34.9333328,0 42,0 C49.0666672,0 54.85,2.5 59.35,7.5 C63.85,12.5 66.1,18.6666672 66.1,26 C66.1,33.3333328 63.85,39.5 59.35,44.5 C54.85,49.5 49.0666672,52 42,52 Z M42,46.1 C47.2666672,46.1 51.5166672,44.1666672 54.75,40.3 C57.9833328,36.4333328 59.6,31.6666672 59.6,26 C59.6,20.2666672 57.9833328,15.4833328 54.75,11.65 C51.5166672,7.81666718 47.2666672,5.9 42,5.9 C36.7333328,5.9 32.4833328,7.81666718 29.25,11.65 C26.0166672,15.4833328 24.4,20.2666672 24.4,26 C24.4,31.6666672 26.0166672,36.4333328 29.25,40.3 C32.4833328,44.1666672 36.7333328,46.1 42,46.1 Z M102.8,0 C109.666667,0 115.233333,2.48333282 119.5,7.45 C123.766667,12.4166672 125.9,18.6 125.9,26 C125.9,33.3333328 123.766667,39.5 119.5,44.5 C115.233333,49.5 109.666667,52 102.8,52 C95.0666672,52 89.0666672,48.7666672 84.8,42.3 L84.8,76 L78.3,76 L78.3,1 L84.8,1 L84.8,9.7 C89.0666672,3.23333282 95.0666672,0 102.8,0 Z M101.9,46.1 C107.166667,46.1 111.416667,44.1666672 114.65,40.3 C117.883333,36.4333328 119.5,31.6666672 119.5,26 C119.5,20.2666672 117.883333,15.4833328 114.65,11.65 C111.416667,7.81666718 107.166667,5.9 101.9,5.9 C97.5666672,5.9 93.85,7.33333282 90.75,10.2 C87.65,13.0666672 85.6666672,16.7666672 84.8,21.3 L84.8,30.7 C85.6666672,35.2333328 87.65,38.9333328 90.75,41.8 C93.85,44.6666672 97.5666672,46.1 101.9,46.1 Z M180.9,25.6 C180.9,26.7333328 180.866667,27.6 180.8,28.2 L140.7,28.2 C141.1,33.6 142.85,37.95 145.95,41.25 C149.05,44.55 153.133333,46.2 158.2,46.2 C164.4,46.2 169.333333,43.3666672 173,37.7 L177.6,41 C173.333333,48.3333328 166.8,52 158,52 C150.866667,52 145.133333,49.5333328 140.8,44.6 C136.466667,39.6666672 134.3,33.4666672 134.3,26 C134.3,18.5333328 136.466667,12.3333328 140.8,7.4 C145.133333,2.46666718 150.866667,0 158,0 C164.933333,0 170.483333,2.38333282 174.65,7.15 C178.816667,11.9166672 180.9,18.0666672 180.9,25.6 Z M158.1,5.7 C153.233333,5.7 149.266667,7.28333282 146.2,10.45 C143.133333,13.6166672 141.333333,17.8 140.8,23 L174.9,23 C174.433333,17.8 172.716667,13.6166672 169.75,10.45 C166.783333,7.28333282 162.9,5.7 158.1,5.7 Z M216,0 C208.866667,0 203.333333,2.83333282 199.4,8.5 L199.1,1 L193,1 L193,51 L199.6,51 L199.6,20.3 C199.6,16.3 201.033333,12.9 203.9,10.1 C206.766667,7.3 210.266667,5.9 214.4,5.9 C218.466667,5.9 221.883333,7.26666718 224.65,10 C227.416667,12.7333328 228.8,16.0666672 228.8,20 L228.8,51 L235.4,51 L235.4,19.4 C235.4,13.8666672 233.55,9.25 229.85,5.55 C226.15,1.85 221.533333,0 216,0 Z" id=".open" fill="#050505"></path>
    </g>
</svg>
